<svg width="180" height="214" viewBox="0 0 180 214" fill="none" xmlns="http://www.w3.org/2000/svg">
<g clip-path="url(#clip0_2037_7001)">
<path d="M-159 -151C105 -151 369 -151 641 -151C641 47 641 245 641 449C377 449 113 449 -159 449C-159 251 -159 53 -159 -151ZM-105 -81C-105 70.8 -105 222.6 -105 379C126 379 357 379 595 379C595 227.2 595 75.4 595 -81C364 -81 133 -81 -105 -81Z" fill="#333319"/>
<path d="M15 35C23.91 35 32.82 35 42 35C42 36.65 42 38.3 42 40C34.74 40 27.48 40 20 40C20 44.29 20 48.58 20 53C25.94 53 31.88 53 38 53C38 54.65 38 56.3 38 58C32.06 58 26.12 58 20 58C20 69.55 20 81.1 20 93C34.52 93 49.04 93 64 93C64 94.65 64 96.3 64 98C56.41 98 48.82 98 41 98C41 109.55 41 121.1 41 133C61.79 133 82.58 133 104 133C104 137.95 104 142.9 104 148C113.57 148 123.14 148 133 148C133 136.12 133 124.24 133 112C134.65 112 136.3 112 138 112C138 125.53 138 139.06 138 153C117.54 153 97.08 153 76 153C76 151.35 76 149.7 76 148C83.59 148 91.18 148 99 148C99 144.7 99 141.4 99 138C87.45 138 75.9 138 64 138C64 146.58 64 155.16 64 164C68.95 164 73.9 164 79 164C79 165.65 79 167.3 79 169C64.15 169 49.3 169 34 169C34 167.35 34 165.7 34 164C42.25 164 50.5 164 59 164C59 155.42 59 146.84 59 138C51.41 138 43.82 138 36 138C36 124.8 36 111.6 36 98C30.72 98 25.44 98 20 98C20 114.5 20 131 20 148C27.92 148 35.84 148 44 148C44 149.65 44 151.3 44 153C36.08 153 28.16 153 20 153C20 161.91 20 170.82 20 180C48.05 180 76.1 180 105 180C105 176.37 105 172.74 105 169C101.04 169 97.08 169 93 169C93 167.35 93 165.7 93 164C111.81 164 130.62 164 150 164C150 153.11 150 142.22 150 131C151.65 131 153.3 131 155 131C155 143.54 155 156.08 155 169C140.15 169 125.3 169 110 169C110 172.63 110 176.26 110 180C115.61 180 121.22 180 127 180C127 181.65 127 183.3 127 185C90.04 185 53.08 185 15 185C15 135.5 15 86 15 35Z" fill="#1F4D14"/>
<path d="M60 35C96.63 35 133.26 35 171 35C171 84.5 171 134 171 185C162.09 185 153.18 185 144 185C144 183.35 144 181.7 144 180C151.26 180 158.52 180 166 180C166 160.2 166 140.4 166 120C160.39 120 154.78 120 149 120C149 118.35 149 116.7 149 115C154.61 115 160.22 115 166 115C166 90.25 166 65.5 166 40C156.76 40 147.52 40 138 40C138 52.54 138 65.08 138 78C136.35 78 134.7 78 133 78C133 65.46 133 52.92 133 40C114.52 40 96.04 40 77 40C77 44.29 77 48.58 77 53C83.6 53 90.2 53 97 53C97 54.65 97 56.3 97 58C84.13 58 71.26 58 58 58C58 62.62 58 67.24 58 72C75.82 72 93.64 72 112 72C112 65.73 112 59.46 112 53C113.65 53 115.3 53 117 53C117 60.92 117 68.84 117 77C112.71 77 108.42 77 104 77C104 85.58 104 94.16 104 103C108.29 103 112.58 103 117 103C117 100.03 117 97.06 117 94C127.89 94 138.78 94 150 94C150 79.15 150 64.3 150 49C151.65 49 153.3 49 155 49C155 67.15 155 85.3 155 104C153.35 104 151.7 104 150 104C150 102.35 150 100.7 150 99C140.76 99 131.52 99 122 99C122 110.55 122 122.1 122 134C120.35 134 118.7 134 117 134C117 125.42 117 116.84 117 108C112.71 108 108.42 108 104 108C104 111.63 104 115.26 104 119C88.16 119 72.32 119 56 119C56 117.35 56 115.7 56 114C70.19 114 84.38 114 99 114C99 101.79 99 89.58 99 77C94.38 77 89.76 77 85 77C85 85.25 85 93.5 85 102C83.35 102 81.7 102 80 102C80 93.75 80 85.5 80 77C65.48 77 50.96 77 36 77C36 75.35 36 73.7 36 72C41.61 72 47.22 72 53 72C53 65.73 53 59.46 53 53C59.27 53 65.54 53 72 53C72 48.71 72 44.42 72 40C68.04 40 64.08 40 60 40C60 38.35 60 36.7 60 35Z" fill="#1F4D14"/>
<path d="M137.062 195.188C140.002 195.998 140.002 195.998 142.002 198.998C141.812 202.068 141.812 202.068 141.002 204.998C138.002 206.998 138.002 206.998 134.942 206.808C132.002 205.998 132.002 205.998 130.002 202.998C130.182 199.938 130.182 199.938 131.002 196.998C134.002 194.998 134.002 194.998 137.062 195.188Z" fill="#FFC3C3"/>
<path d="M134 197C136.62 197.38 136.62 197.38 139 198C139.62 200.38 139.62 200.38 140 203C139.34 203.66 138.68 204.32 138 205C135.38 204.62 135.38 204.62 133 204C132.38 201.62 132.38 201.62 132 199C132.66 198.34 133.32 197.68 134 197Z" fill="#FF5454"/>
<path d="M50 6C52.04 7.62 54.04 9.29 56 11C56 11.66 56 12.32 56 13C55.4 12.67 54.8 12.34 54.19 12C51.95 10.79 51.95 10.79 49 11C46.85 11.95 46.85 11.95 45 13C46.29 10.12 47.66 8.13 50 6Z" fill="#FF5F5F"/>
</g>
<defs>
<clipPath id="clip0_2037_7001">
<rect width="180" height="214" fill="white"/>
</clipPath>
</defs>
</svg>
