<svg width="25" height="25" viewBox="0 0 25 25" fill="none" xmlns="http://www.w3.org/2000/svg">
<path fill-rule="evenodd" clip-rule="evenodd" d="M23.8784 21.2426L14.6694 12.0118L23.8784 2.81065C25.3247 1.36095 23.1405 -0.828402 21.6942 0.621302L12.4852 9.82249L3.30579 0.621302C1.85951 -0.828402 -0.324668 1.36095 1.12161 2.81065L10.3011 12.0118L1.12161 21.2426C-0.324668 22.6923 1.85951 24.8817 3.30579 23.432L12.4852 14.2012L21.6942 23.432C23.1405 24.8817 25.3247 22.6923 23.8784 21.2426ZM23.3176 21.8047L13.5773 12.0118L23.3176 2.24852C24.0555 1.53846 22.9634 0.443788 22.255 1.15385L12.4852 10.9172L2.74499 1.15385C2.03661 0.443788 0.944517 1.53846 1.6529 2.24852L11.3932 12.0118L1.6529 21.8047C0.944517 22.5148 2.03661 23.6095 2.74499 22.8698L12.4852 13.1065L22.255 22.8698C22.9634 23.6095 24.0555 22.5148 23.3176 21.8047Z" fill="black"/>
</svg>
